<svg width="516.2937866210937px" height="129.2px" xmlns="http://www.w3.org/2000/svg" viewBox="-8.14689331054683 10.400000000000006 516.2937866210937 129.2" style="background: rgba(0, 0, 0, 0);" preserveAspectRatio="xMidYMid"><defs><linearGradient id="editing-gradow-gradient" x1="1" x2="0" y1="0.49999999999999994" y2="0.5000000000000001" gradientUnits="objectBoundingBox"><stop offset="0" stop-color="#f0f"></stop><stop offset="1" stop-color="#0ff"></stop></linearGradient><filter id="editing-gradow-filter" x="-100%" y="-100%" width="300%" height="300%"><feFlood flood-color="#fffcd9" result="flood"></feFlood><feComposite operator="in" in2="SourceAlpha" in="flood" result="shadow"></feComposite><feOffset dx="-4" dy="-4" in="SourceGraphic" result="offset-1"></feOffset><feOffset dx="4" dy="4" in="shadow" result="offset-2"></feOffset><feMerge><feMergeNode in="offset-2"></feMergeNode><feMergeNode in="offset-1"></feMergeNode></feMerge></filter></defs><g filter="url(#editing-gradow-filter)"><g transform="translate(67.60537910461426, 105.52499961853027)"><path d="M20.86 0.32L20.86 0.32L11.07 0L11.07 0Q8.26 0 2.30 0.32L2.30 0.32L2.30 0.32Q2.11-0.90 2.43-1.92L2.43-1.92L2.43-1.92Q5.12-2.30 7.55-3.20L7.55-3.20L7.55-41.60L2.62-42.88L2.62-42.88Q2.43-44.10 2.94-45.12L2.94-45.12L2.94-45.12Q8.70-44.80 10.75-44.80L10.75-44.80L19.33-44.86L19.33-44.86Q35.14-44.99 35.26-34.56L35.26-34.56L35.26-34.56Q35.26-30.40 32.42-27.55L32.42-27.55L32.42-27.55Q29.57-24.70 25.34-24L25.34-24L25.34-23.87L25.34-23.87Q38.02-22.46 38.02-12.16L38.02-12.16L38.02-12.16Q38.02-8.70 36.61-6.18L36.61-6.18L36.61-6.18Q35.20-3.65 32.70-2.27L32.70-2.27L32.70-2.27Q30.21-0.90 27.30-0.29L27.30-0.29L27.30-0.29Q24.38 0.32 20.86 0.32ZM14.27-21.89L14.27-2.88L20.10-2.56L20.10-2.56Q25.98-2.56 28.48-5.09L28.48-5.09L28.48-5.09Q30.98-7.62 30.85-12.22L30.85-12.22L30.85-12.22Q30.85-17.47 28.13-19.68L28.13-19.68L28.13-19.68Q25.41-21.89 18.82-21.89L18.82-21.89L14.27-21.89ZM14.27-41.73L14.27-25.09L17.98-25.09L17.98-25.09Q23.62-25.09 26.02-27.36L26.02-27.36L26.02-27.36Q28.42-29.63 28.42-34.30L28.42-34.30L28.42-34.30Q28.42-38.34 25.89-40.10L25.89-40.10L25.89-40.10Q23.36-41.86 17.47-41.86L17.47-41.86L17.47-41.86Q16.58-41.86 14.27-41.73L14.27-41.73ZM44.48-42.82L44.48-42.82L44.48-42.82Q44.48-44.03 45.95-45.31L45.95-45.31L45.95-45.31Q47.42-46.59 49.02-46.59L49.02-46.59L49.02-46.59Q50.62-46.59 51.78-45.15L51.78-45.15L51.78-45.15Q52.93-43.71 52.93-42.24L52.93-42.24L52.93-42.24Q52.93-40.96 51.49-39.71L51.49-39.71L51.49-39.71Q50.05-38.46 48.38-38.46L48.38-38.46L48.38-38.46Q46.91-38.46 45.70-39.90L45.70-39.90L45.70-39.90Q44.48-41.34 44.48-42.82ZM53.31-31.94L53.31-31.94L53.31-3.20L57.60-1.92L57.60-1.92Q57.79-0.70 57.28 0.32L57.28 0.32L57.28 0.32Q51.52 0 50.11 0L50.11 0L50.11 0Q48.19 0 42.30 0.32L42.30 0.32L42.30 0.32Q42.11-0.90 42.43-1.92L42.43-1.92L42.43-1.92Q46.02-2.75 46.91-3.20L46.91-3.20L46.91-28.16L41.60-28.67L41.60-28.67Q41.41-29.95 41.92-30.91L41.92-30.91L41.92-30.91Q47.23-31.68 50.88-32.64L50.88-32.64L50.88-32.64Q51.97-32.58 53.31-31.94ZM71.30-32.06L71.30-32.06L71.10-27.71L71.17-27.65L71.17-27.65Q76.54-32.90 83.20-33.02L83.20-33.02L83.20-33.02Q87.42-33.02 89.79-30.62L89.79-30.62L89.79-30.62Q92.16-28.22 92.16-23.74L92.16-23.74L92.22-3.20L96.70-1.92L96.70-1.92Q96.90-0.70 96.38 0.32L96.38 0.32L96.38 0.32Q91.26 0 89.02 0L89.02 0L89.02 0Q86.72 0 81.47 0.32L81.47 0.32L81.47 0.32Q81.28-0.90 81.60-1.92L81.60-1.92L81.60-1.92Q83.58-2.30 85.82-3.20L85.82-3.20L85.82-20.86L85.82-20.86Q85.82-25.09 84.51-26.82L84.51-26.82L84.51-26.82Q83.20-28.54 80.19-28.54L80.19-28.54L80.19-28.54Q75.01-28.54 71.62-24.70L71.62-24.70L71.62-3.20L75.90-1.92L75.90-1.92Q76.10-0.70 75.58 0.32L75.58 0.32L75.58 0.32Q70.46 0 68.42 0L68.42 0L68.42 0Q66.50 0 60.61 0.32L60.61 0.32L60.61 0.32Q60.42-0.90 60.74-1.92L60.74-1.92L60.74-1.92Q63.81-2.69 65.22-3.20L65.22-3.20L65.22-28.16L59.90-28.67L59.90-28.67Q59.71-29.95 60.22-30.91L60.22-30.91L60.22-30.91Q65.15-31.74 69.12-32.64L69.12-32.64L69.12-32.64Q70.21-32.58 71.30-32.06ZM110.46 1.02L110.46 1.02L110.46 1.02Q106.88 1.02 105.06-1.02L105.06-1.02L105.06-1.02Q103.23-3.07 103.23-7.62L103.23-7.62L103.23-28.03L98.75-28.03L98.75-28.03Q98.11-29.25 98.43-30.91L98.43-30.91L98.43-30.91Q102.02-30.85 103.46-32.35L103.46-32.35L103.46-32.35Q104.90-33.86 106.11-38.72L106.11-38.72L109.50-38.72L109.50-31.55L116.22-31.55L116.22-31.55Q117.12-29.70 116.22-28.03L116.22-28.03L109.50-28.03L109.50-9.22L109.50-9.22Q109.50-4.93 110.18-3.52L110.18-3.52L110.18-3.52Q110.85-2.11 112.70-2.18L112.70-2.18L112.70-2.18Q114.30-2.18 116.54-3.46L116.54-3.46L116.54-3.46Q117.44-2.88 117.50-1.54L117.50-1.54L117.50-1.54Q116.67-0.58 114.78 0.22L114.78 0.22L114.78 0.22Q112.90 1.02 110.46 1.02ZM126.34-7.68L126.34-7.68L126.34-7.68Q126.34-5.12 127.71-3.78L127.71-3.78L127.71-3.78Q129.09-2.43 131.46-2.43L131.46-2.43L131.46-2.43Q133.25-2.43 135.26-3.52L135.26-3.52L135.26-3.52Q137.28-4.61 138.30-6.08L138.30-6.08L138.30-14.72L138.30-14.72Q131.71-14.72 129.02-13.15L129.02-13.15L129.02-13.15Q126.34-11.58 126.34-7.68ZM144.58-20.29L144.58-20.29L144.58-3.14L144.58-3.14Q145.54-2.62 149.06-1.86L149.06-1.86L149.06-1.86Q149.25-0.64 148.74 0.38L148.74 0.38L148.74 0.38Q146.37 0.83 143.36 0.83L143.36 0.83L143.36 0.83Q141.25 0.83 139.71 0.45L139.71 0.45L138.82-2.88L138.56-2.88L138.56-2.88Q134.72 1.09 129.02 1.09L129.02 1.09L129.02 1.09Q124.93 1.09 122.43-1.06L122.43-1.06L122.43-1.06Q119.94-3.20 119.94-7.04L119.94-7.04L119.94-7.04Q120.00-17.60 138.30-17.28L138.30-17.28L138.37-22.91L138.37-22.91Q138.43-30.34 132.74-30.40L132.74-30.40L132.74-30.40Q129.34-30.40 126.72-29.44L126.72-29.44L125.89-22.66L125.89-22.66Q124.61-22.21 123.07-22.40L123.07-22.40L123.07-22.40Q121.73-27.26 121.79-30.72L121.79-30.72L121.79-30.72Q127.10-33.28 134.46-33.28L134.46-33.28L134.46-33.28Q139.97-33.34 142.27-30.46L142.27-30.46L142.27-30.46Q144.58-27.58 144.58-20.29ZM162.30-32.06L162.30-32.06L162.11-27.71L162.18-27.65L162.18-27.65Q167.55-32.90 174.21-33.02L174.21-33.02L174.21-33.02Q178.43-33.02 180.80-30.62L180.80-30.62L180.80-30.62Q183.17-28.22 183.17-23.74L183.17-23.74L183.23-3.20L187.71-1.92L187.71-1.92Q187.90-0.70 187.39 0.32L187.39 0.32L187.39 0.32Q182.27 0 180.03 0L180.03 0L180.03 0Q177.73 0 172.48 0.32L172.48 0.32L172.48 0.32Q172.29-0.90 172.61-1.92L172.61-1.92L172.61-1.92Q174.59-2.30 176.83-3.20L176.83-3.20L176.83-20.86L176.83-20.86Q176.83-25.09 175.52-26.82L175.52-26.82L175.52-26.82Q174.21-28.54 171.20-28.54L171.20-28.54L171.20-28.54Q166.02-28.54 162.62-24.70L162.62-24.70L162.62-3.20L166.91-1.92L166.91-1.92Q167.10-0.70 166.59 0.32L166.59 0.32L166.59 0.32Q161.47 0 159.42 0L159.42 0L159.42 0Q157.50 0 151.62 0.32L151.62 0.32L151.62 0.32Q151.42-0.90 151.74-1.92L151.74-1.92L151.74-1.92Q154.82-2.69 156.22-3.20L156.22-3.20L156.22-28.16L150.91-28.67L150.91-28.67Q150.72-29.95 151.23-30.91L151.23-30.91L151.23-30.91Q156.16-31.74 160.13-32.64L160.13-32.64L160.13-32.64Q161.22-32.58 162.30-32.06ZM212.22-21.44L212.22-21.44L212.22-21.44Q212.22-25.34 210.14-27.62L210.14-27.62L210.14-27.62Q208.06-29.89 204.74-29.89L204.74-29.89L204.74-29.89Q201.41-29.89 199.33-27.62L199.33-27.62L199.33-27.62Q197.25-25.34 197.25-21.44L197.25-21.44L197.25-21.44Q197.25-17.79 199.36-15.46L199.36-15.46L199.36-15.46Q201.47-13.12 204.74-13.12L204.74-13.12L204.74-13.12Q208.00-13.12 210.11-15.46L210.11-15.46L210.11-15.46Q212.22-17.79 212.22-21.44ZM204.74-10.69L204.74-10.69L204.74-10.69Q202.18-10.69 199.87-11.39L199.87-11.39L199.87-11.39Q198.72-9.73 198.72-8.90L198.72-8.90L198.72-8.90Q198.72-8.19 199.17-7.68L199.17-7.68L199.17-7.68Q199.62-7.17 201.57-6.62L201.57-6.62L201.57-6.62Q203.52-6.08 207.81-5.57L207.81-5.57L207.81-5.57Q214.72-4.86 217.76-2.98L217.76-2.98L217.76-2.98Q220.80-1.09 220.80 3.52L220.80 3.52L220.80 3.52Q220.80 7.23 218.30 9.76L218.30 9.76L218.30 9.76Q215.81 12.29 212.16 13.38L212.16 13.38L212.16 13.38Q208.51 14.46 204.74 14.46L204.74 14.46L204.74 14.46Q197.82 14.46 194.37 12.06L194.37 12.06L194.37 12.06Q190.91 9.66 190.91 6.02L190.91 6.02L190.91 6.02Q190.91 0.26 196.93-2.24L196.93-2.24L196.93-2.24Q194.82-4.10 194.82-6.46L194.82-6.46L194.82-6.46Q194.82-9.79 197.44-12.29L197.44-12.29L197.44-12.29Q191.42-15.23 191.42-21.31L191.42-21.31L191.42-21.31Q191.49-26.88 195.49-29.63L195.49-29.63L195.49-29.63Q199.49-32.38 204.74-32.32L204.74-32.32L204.74-32.32Q208.32-32.32 211.14-31.17L211.14-31.17L219.65-36.42L219.65-36.42Q220.35-35.97 220.99-34.30L220.99-34.30L220.99-34.30Q221.63-32.64 221.44-31.74L221.44-31.74L221.44-31.74Q217.22-30.34 213.31-30.08L213.31-30.08L213.31-30.08Q218.05-27.20 218.05-21.31L218.05-21.31L218.05-21.31Q218.05-17.73 215.84-15.23L215.84-15.23L215.84-15.23Q213.63-12.74 210.62-11.71L210.62-11.71L210.62-11.71Q207.62-10.69 204.74-10.69ZM205.70-0.45L205.70-0.45L205.70-0.45Q205.18-0.51 203.97-0.67L203.97-0.67L203.97-0.67Q202.75-0.83 201.50-1.02L201.50-1.02L201.50-1.02Q200.26-1.22 199.23-1.47L199.23-1.47L199.23-1.47Q197.57-0.06 196.83 1.38L196.83 1.38L196.83 1.38Q196.10 2.82 196.10 5.12L196.10 5.12L196.10 5.12Q196.10 8 198.53 10.02L198.53 10.02L198.53 10.02Q200.96 12.03 205.06 12.03L205.06 12.03L205.06 12.03Q209.47 12.03 212.26 9.92L212.26 9.92L212.26 9.92Q215.04 7.81 215.04 5.18L215.04 5.18L215.04 5.18Q215.04 2.75 212.58 1.44L212.58 1.44L212.58 1.44Q210.11 0.13 205.70-0.45ZM252.22-44.16L252.22-44.16L252.22-3.20L258.50-1.92L258.50-1.92Q258.69-0.70 258.18 0.32L258.18 0.32L258.18 0.32Q252.42 0 249.09 0L249.09 0L249.09 0Q245.95 0 240 0.32L240 0.32L240 0.32Q239.81-0.90 240.13-1.92L240.13-1.92L240.13-1.92Q244.54-2.56 245.82-3.20L245.82-3.20L245.82-39.10L238.85-39.74L238.85-39.74Q238.66-41.02 239.17-41.98L239.17-41.98L239.17-41.98Q245.12-43.14 249.66-44.86L249.66-44.86L249.66-44.86Q250.88-44.80 252.22-44.16ZM289.34-11.52L289.34-11.52L289.34-11.52Q289.34-5.89 284.96-2.40L284.96-2.40L284.96-2.40Q280.58 1.09 274.37 1.09L274.37 1.09L274.37 1.09Q268.35 1.09 262.91-1.34L262.91-1.34L262.91-1.34Q263.10-7.68 264.51-11.84L264.51-11.84L264.51-11.84Q264.77-11.90 265.22-11.90L265.22-11.90L265.22-11.90Q265.79-11.90 266.82-11.52L266.82-11.52L267.90-3.26L267.90-3.26Q270.85-2.24 273.66-2.24L273.66-2.24L273.66-2.24Q277.50-2.24 280.03-4.67L280.03-4.67L280.03-4.67Q282.56-7.10 282.56-11.39L282.56-11.39L282.56-11.39Q282.50-21.70 270.78-21.95L270.78-21.95L270.78-24.51L270.78-24.51Q275.65-24.70 278.62-27.46L278.62-27.46L278.62-27.46Q281.60-30.21 281.60-34.24L281.60-34.24L281.60-34.24Q281.54-38.46 279.49-40.45L279.49-40.45L279.49-40.45Q277.44-42.43 274.18-42.43L274.18-42.43L274.18-42.43Q271.68-42.43 269.06-41.28L269.06-41.28L267.84-33.28L267.84-33.28Q267.07-32.90 266.24-32.90L266.24-32.90L266.24-32.90Q265.79-32.90 265.54-32.96L265.54-32.96L265.54-32.96Q264.06-38.72 264.06-43.14L264.06-43.14L264.06-43.14Q269.70-45.57 275.65-45.63L275.65-45.63L275.65-45.63Q280.90-45.70 284.19-42.98L284.19-42.98L284.19-42.98Q287.49-40.26 287.49-34.75L287.49-34.75L287.49-34.75Q287.49-30.72 284.61-27.71L284.61-27.71L284.61-27.71Q281.73-24.70 277.76-23.81L277.76-23.81L277.76-23.55L277.76-23.55Q283.58-22.72 286.46-19.81L286.46-19.81L286.46-19.81Q289.34-16.90 289.34-11.52ZM321.66-21.89L321.66-21.89L321.66-21.89Q321.66-25.41 321.18-29.18L321.18-29.18L321.18-29.18Q320.70-32.96 319.58-36.13L319.58-36.13L319.58-36.13Q318.46-39.30 316.61-41.18L316.61-41.18L316.61-41.18Q314.75-43.07 312.26-43.07L312.26-43.07L312.26-43.07Q309.70-43.07 307.87-41.18L307.87-41.18L307.87-41.18Q306.05-39.30 304.93-36.13L304.93-36.13L304.93-36.13Q303.81-32.96 303.33-29.18L303.33-29.18L303.33-29.18Q302.85-25.41 302.85-21.89L302.85-21.89L302.85-21.89Q302.85-18.24 303.33-14.62L303.33-14.62L303.33-14.62Q303.81-11.01 304.90-8.10L304.90-8.10L304.90-8.10Q305.98-5.18 307.84-3.39L307.84-3.39L307.84-3.39Q309.70-1.60 312.26-1.60L312.26-1.60L312.26-1.60Q314.75-1.60 316.61-3.33L316.61-3.33L316.61-3.33Q318.46-5.06 319.58-8.03L319.58-8.03L319.58-8.03Q320.70-11.01 321.18-14.59L321.18-14.59L321.18-14.59Q321.66-18.18 321.66-21.89ZM296.06-21.63L296.06-21.63L296.06-21.63Q296.06-27.07 297.18-31.46L297.18-31.46L297.18-31.46Q298.30-35.84 300.42-39.01L300.42-39.01L300.42-39.01Q302.53-42.18 305.54-43.90L305.54-43.90L305.54-43.90Q308.54-45.63 312.26-45.63L312.26-45.63L312.26-45.63Q315.90-45.63 318.88-43.97L318.88-43.97L318.88-43.97Q321.86-42.30 324-39.17L324-39.17L324-39.17Q326.14-36.03 327.30-31.55L327.30-31.55L327.30-31.55Q328.45-27.07 328.45-21.63L328.45-21.63L328.45-21.63Q328.45-15.94 327.26-11.65L327.26-11.65L327.26-11.65Q326.08-7.36 323.87-4.54L323.87-4.54L323.87-4.54Q321.66-1.73 318.69-0.38L318.69-0.38L318.69-0.38Q315.71 0.96 312.26 0.96L312.26 0.96L312.26 0.96Q308.80 0.96 305.82-0.38L305.82-0.38L305.82-0.38Q302.85-1.73 300.67-4.51L300.67-4.51L300.67-4.51Q298.50-7.30 297.28-11.52L297.28-11.52L297.28-11.52Q296.06-15.74 296.06-21.63ZM339.90-4.99L340.10-4.80L358.21-4.80L359.62-11.39L359.62-11.39Q360.96-11.65 361.92-11.20L361.92-11.20L361.92-11.20Q362.56-6.53 362.56 0L362.56 0L334.27 0L334.27-3.52L334.27-3.52Q335.36-4.80 338.66-8.45L338.66-8.45L338.66-8.45Q341.95-12.10 344.22-14.75L344.22-14.75L344.22-14.75Q346.50-17.41 348.93-20.90L348.93-20.90L348.93-20.90Q351.36-24.38 352.77-27.81L352.77-27.81L352.77-27.81Q354.18-31.23 354.18-34.24L354.18-34.24L354.18-34.24Q354.18-42.24 345.98-42.24L345.98-42.24L345.98-42.24Q343.10-42.24 339.84-40.96L339.84-40.96L339.01-32.58L339.01-32.58Q337.73-32.06 336.32-32.38L336.32-32.38L336.32-32.38Q334.78-38.59 334.91-42.88L334.91-42.88L334.91-42.88Q341.18-45.63 346.94-45.63L346.94-45.63L346.94-45.63Q349.18-45.63 350.91-45.47L350.91-45.47L350.91-45.47Q352.64-45.31 354.59-44.67L354.59-44.67L354.59-44.67Q356.54-44.03 357.95-42.82L357.95-42.82L357.95-42.82Q359.36-41.60 360.29-39.46L360.29-39.46L360.29-39.46Q361.22-37.31 361.22-34.05L361.22-34.05L361.22-34.05Q361.22-30.66 358.40-26.08L358.40-26.08L358.40-26.08Q355.58-21.50 352.26-17.79L352.26-17.79L352.26-17.79Q348.93-14.08 344.70-9.86L344.70-9.86L344.70-9.86Q340.48-5.63 339.90-4.99L339.90-4.99Z" fill="url(#editing-gradow-gradient)"></path></g></g><style>text {
  font-size: 64px;
  font-family: Arial Black;
  dominant-baseline: central;
  text-anchor: middle;
}</style></svg>