<svg width="175.36323242187498px" height="53.6px" xmlns="http://www.w3.org/2000/svg" viewBox="162.31838378906252 48.2 175.36323242187498 53.6" style="background: rgba(0, 0, 0, 0);" preserveAspectRatio="xMidYMid"><defs><linearGradient id="editing-gradient-gradient" x1="0.9890738003669028" x2="0.010926199633097156" y1="0.6039558454088796" y2="0.39604415459112047" gradientUnits="objectBoundingBox"><stop offset="0" stop-color="#f0f"></stop><stop offset="1" stop-color="#0ff"></stop></linearGradient></defs><g><g transform="translate(193.1405685544014, 84.57000160217285)"><path d="M8.16-1.10L9.68-2.70L9.40-5.66L8.04-6.62L6.64-6.84L4.24-6.84L4.44-0.90L6.74-0.80L8.16-1.10ZM4.24-7.74L6.64-7.84L8.72-8.94L8.94-11.12L7.92-12.78L6.72-13.10L4.38-13.04L4.24-7.74ZM3.34-14L6.74-14L9.06-13.70L10.94-11.80L10.94-9.92L9.86-8.30L7.98-7.52L7.98-7.48L10.02-7.04L11.50-5.52L11.88-4.08L11.12-1.42L9.12-0.26L6.66 0.10L3.44 0L0.70 0.20L0.74-0.50L2.34-1L2.54-7.14L2.34-13L0.70-13.48L0.80-14.18L3.34-14ZM13.80-13.38L14.28-14.16L15.20-14.60L16.16-14.28L16.60-13.20L16.04-12.32L15.10-11.94L14.22-12.48L13.80-13.38ZM16.68-9.98L16.54-7.26L16.42-5.26L16.48-3.32L16.56-1L18.02-0.60L17.92 0.10L15.56 0L13.12 0.10L13.16-0.60L14.48-1L14.58-3.10L14.54-6.94L14.44-9.02L13.02-8.96L12.92-9.66L15.68-10.20L16.68-9.98ZM28.70-3.32L28.86-0.98L30.28-0.60L30.18 0.10L27.82 0L25.38 0.10L25.42-0.60L26.74-1L26.88-3.10L26.80-7.46L26.26-8.78L24.56-9.08L22.38-7.96L22.34-7.26L22.22-5.26L22.26-3.32L22.36-1L23.82-0.60L23.72 0.10L21.36 0L18.92 0.10L18.96-0.60L20.28-1L20.42-3.10L20.24-9.02L18.82-8.96L18.72-9.66L21.48-10.20L22.48-9.98L22.42-8.96L24.56-10.26L26.60-10.40L28.44-9.14L28.74-7.54L28.70-3.32ZM36.76-0.48L35.64 0.20L34.28 0.40L32.86-0.08L32.22-1.68L32.32-5.40L32.22-8.76L30.84-8.96L30.72-9.66L32.30-10.08L33.02-12.10L34.04-12.10L33.98-9.86L36.40-9.78L36.28-8.90L34.18-8.76L34.10-7.84L34.18-1.78L34.58-0.58L36.46-1.08L36.76-0.48ZM39.36-2.74L39.90-1.12L41.40-0.74L43.42-1.90L43.34-4.60L41.60-4.60L40.06-3.98L39.36-2.74ZM45.04-7.92L45.06-3.64L45.20-0.82L46.58-0.62L46.44 0.04L43.66 0.28L43.40-0.90L43.30-0.90L41.32 0.28L39.24 0.28L37.84-0.74L37.42-2.70L38.30-4.26L40.70-5.30L43.34-5.40L43.26-7.90L42.88-9.14L41.26-9.60L39.32-9.14L39.26-7.02L38.48-6.86L37.96-9.60L40.26-10.28L42.84-10.40L44.40-9.64L45.04-7.92ZM57.14-3.32L57.30-0.98L58.72-0.60L58.62 0.10L56.26 0L53.82 0.10L53.86-0.60L55.18-1L55.32-3.10L55.24-7.46L54.70-8.78L53.00-9.08L50.82-7.96L50.78-7.26L50.66-5.26L50.70-3.32L50.80-1L52.26-0.60L52.16 0.10L49.80 0L47.36 0.10L47.40-0.60L48.72-1L48.86-3.10L48.68-9.02L47.26-8.96L47.16-9.66L49.92-10.20L50.92-9.98L50.86-8.96L53.00-10.26L55.04-10.40L56.88-9.14L57.18-7.54L57.14-3.32ZM66.06-9.80L68.62-11.48L69.26-10.14L68.42-9.62L66.76-9.40L68.16-7.68L68.14-5.74L67.02-4.08L64.58-3.28L62.46-3.58L62.10-3.06L62.02-2.50L62.58-2.14L66.02-1.60L67.36-1.30L68.70-0.34L68.86 2.04L67.94 3.42L65.70 4.44L62.54 4.54L61.16 4.12L60.02 3.12L59.60 1.68L60.20-0.06L61.56-0.70L60.84-1.38L60.84-2.76L61.74-3.82L60.04-5.14L59.84-7.68L61.50-9.60L64.04-10.20L66.06-9.80ZM62.16-4.86L63.48-4.14L65.12-4.36L66.18-5.50L66.34-7.46L65.46-8.96L64-9.40L62.08-8.60L61.52-6.84L62.16-4.86ZM67.34 0.82L64.56-0.12L62.24-0.44L61.34 0.54L61.22 2.02L62.12 3.32L64.38 3.66L66.76 2.76L67.34 0.82ZM78.94-13.80L78.74-11.52L78.64-6.48L78.68-2.74L78.80-1L80.70-0.60L80.60 0.10L77.82 0L74.98 0.10L75.02-0.60L76.72-0.82L76.84-3.24L76.82-10.28L76.68-12.42L74.62-12.42L74.68-13.24L78.20-14.02L78.94-13.80ZM90.44-4.86L90.22-2.04L88.32-0.26L85.50 0.32L83.86 0.16L82.14-0.42L82.64-3.70L83.36-3.60L83.70-1.02L85.34-0.66L87.58-1.24L88.48-3.56L88.00-5.44L86.44-6.62L84.82-6.86L84.82-7.66L86.36-8L87.60-9.16L87.98-11.16L87.44-12.58L85.96-13.30L83.94-12.86L83.56-10.40L82.84-10.30L82.38-13.46L85.44-14.40L87.84-14.08L89.60-12.60L89.82-10.86L89.38-9.36L88.50-8.12L86.84-7.44L86.84-7.36L89.18-6.70L90.44-4.86ZM101.60-2.06L100.48-0.60L98.46 0.24L96.74 0.24L94.32-0.84L92.86-3.40L92.50-5.56L92.50-8.88L93.96-12.26L96.26-14.20L98.38-14.28L100.10-13.54L101.90-11.46L102.64-7.44L102.50-4.34L101.60-2.06ZM98.34-13.44L96.58-13.28L95.32-11.42L94.52-7.82L94.90-4.06L95.58-1.70L96.86-0.58L98.28-0.58L99.54-1.52L100.14-3.34L100.54-6.96L99.90-11.70L98.34-13.44ZM106.12-1.24L111.88-1.44L112.32-3.56L112.96-3.50L113.24 0.20L111.66 0L105.34 0L105.04 0.20L104.32 0L104.44-1.10L109.62-7.26L110.76-10.80L110.36-12.82L108-13.24L106.18-12.82L105.92-10.32L105.08-10.14L104.58-13.58L108.14-14.40L111.30-13.90L112.70-12.54L112.90-9.98L111.12-6.64L106.06-1.30L106.12-1.24Z" fill="url(#editing-gradient-gradient)"></path></g></g><style>text {
  font-size: 64px;
  font-family: Arial Black;
  dominant-baseline: central;
  text-anchor: middle;
}</style></svg>